<svg width="24" height="24" viewBox="0 0 24 24" fill="none" xmlns="http://www.w3.org/2000/svg">
<rect width="24" height="24" rx="12" fill="black"/>
<path d="M12.0001 3.93262L6.93262 12.446L12.0001 15.4864L17.0676 12.446L12.0001 3.93262ZM6.93262 13.4595L12.0001 20.5539L17.0676 13.4595L12.0001 16.4999L6.93262 13.4595Z" fill="#1976D2"/>
<path d="M6.64893 13.2725L12.0001 16.642V20.9998" fill="#53D3E0"/>
<path d="M17.3512 13.2725L12 16.642V20.9998" fill="#5A9DED"/>
<path d="M6.64893 12.1835L12.0001 9.17753V3L6.64893 12.1835Z" fill="#FFE94D"/>
<path d="M12.0001 15.5532V9.17773L6.64893 12.1837L12.0001 15.5532Z" fill="#A7DF7E"/>
<path d="M12 3V9.17753L17.3512 12.1835L12 3Z" fill="#FF9C92"/>
<path d="M12 9.17773V15.5532L17.3512 12.1837L12 9.17773Z" fill="#D797D1"/>
</svg>
