<svg width="16" height="16" viewBox="0 0 16 16" fill="none" xmlns="http://www.w3.org/2000/svg">
<path d="M13.3335 7.99967C13.3335 9.41416 12.7716 10.7707 11.7714 11.7709C10.7712 12.7711 9.41465 13.333 8.00016 13.333C6.58567 13.333 5.22912 12.7711 4.22893 11.7709C3.22873 10.7707 2.66683 9.41416 2.66683 7.99967C2.66683 6.58519 3.22873 5.22863 4.22893 4.22844C5.22912 3.22824 6.58567 2.66634 8.00016 2.66634C8.50683 2.66634 9.00016 2.73967 9.46683 2.87301L10.5135 1.82634C9.74016 1.50634 8.8935 1.33301 8.00016 1.33301C7.12468 1.33301 6.25778 1.50545 5.44894 1.84048C4.6401 2.17551 3.90517 2.66657 3.28612 3.28563C2.03588 4.53587 1.3335 6.23156 1.3335 7.99967C1.3335 9.76778 2.03588 11.4635 3.28612 12.7137C3.90517 13.3328 4.6401 13.8238 5.44894 14.1589C6.25778 14.4939 7.12468 14.6663 8.00016 14.6663C9.76827 14.6663 11.464 13.964 12.7142 12.7137C13.9645 11.4635 14.6668 9.76778 14.6668 7.99967M5.2735 6.71967L4.3335 7.66634L7.3335 10.6663L14.0002 3.99967L13.0602 3.05301L7.3335 8.77967L5.2735 6.71967Z" fill="#13FF75"/>
</svg>
