<svg width="280" height="80" viewBox="0 0 280 80" fill="none" xmlns="http://www.w3.org/2000/svg">
<path d="M3.38062 12V5.62L2.13762 5.906V5.048L3.84262 4.3H4.59062V12H3.38062ZM12.0065 12.132C11.3098 12.132 10.7085 11.967 10.2025 11.637C9.70384 11.2997 9.31884 10.834 9.04751 10.24C8.78351 9.63867 8.65151 8.942 8.65151 8.15C8.65151 7.358 8.78351 6.665 9.04751 6.071C9.31884 5.46967 9.70384 5.004 10.2025 4.674C10.7085 4.33667 11.3098 4.168 12.0065 4.168C12.7032 4.168 13.3008 4.33667 13.7995 4.674C14.2982 5.004 14.6795 5.46967 14.9435 6.071C15.2148 6.665 15.3505 7.358 15.3505 8.15C15.3505 8.942 15.2148 9.63867 14.9435 10.24C14.6795 10.834 14.2982 11.2997 13.7995 11.637C13.3008 11.967 12.7032 12.132 12.0065 12.132ZM12.0065 11.087C12.4245 11.087 12.7948 10.9697 13.1175 10.735C13.4475 10.5003 13.7042 10.163 13.8875 9.723C14.0708 9.283 14.1625 8.75867 14.1625 8.15C14.1625 7.54133 14.0708 7.017 13.8875 6.577C13.7042 6.137 13.4475 5.79967 13.1175 5.565C12.7948 5.33033 12.4245 5.213 12.0065 5.213C11.5812 5.213 11.2072 5.33033 10.8845 5.565C10.5618 5.79967 10.3088 6.137 10.1255 6.577C9.94217 7.017 9.85051 7.54133 9.85051 8.15C9.85051 8.75867 9.94217 9.283 10.1255 9.723C10.3088 10.163 10.5618 10.5003 10.8845 10.735C11.2072 10.9697 11.5812 11.087 12.0065 11.087ZM19.1141 12.132C18.6155 12.132 18.1608 12.044 17.7501 11.868C17.3468 11.6847 17.0241 11.4097 16.7821 11.043C16.5401 10.6763 16.4118 10.218 16.3971 9.668H17.5521C17.5668 10.0787 17.7061 10.427 17.9701 10.713C18.2415 10.9917 18.6228 11.131 19.1141 11.131C19.5835 11.131 19.9428 11.0027 20.1921 10.746C20.4415 10.482 20.5661 10.1557 20.5661 9.767C20.5661 9.29767 20.3975 8.94933 20.0601 8.722C19.7301 8.49467 19.3231 8.381 18.8391 8.381H18.2671V7.413H18.8501C19.2828 7.413 19.6311 7.31033 19.8951 7.105C20.1665 6.89967 20.3021 6.61 20.3021 6.236C20.3021 5.92067 20.1958 5.664 19.9831 5.466C19.7778 5.268 19.4845 5.169 19.1031 5.169C18.7071 5.169 18.3955 5.28633 18.1681 5.521C17.9408 5.74833 17.8161 6.03433 17.7941 6.379H16.6391C16.6538 5.93167 16.7638 5.543 16.9691 5.213C17.1818 4.883 17.4715 4.62633 17.8381 4.443C18.2048 4.25967 18.6265 4.168 19.1031 4.168C19.6165 4.168 20.0455 4.25967 20.3901 4.443C20.7421 4.619 21.0061 4.861 21.1821 5.169C21.3655 5.46967 21.4571 5.79967 21.4571 6.159C21.4571 6.56967 21.3435 6.929 21.1161 7.237C20.8888 7.545 20.5845 7.75033 20.2031 7.853C20.6431 7.94833 21.0061 8.16467 21.2921 8.502C21.5781 8.832 21.7211 9.261 21.7211 9.789C21.7211 10.2143 21.6221 10.6067 21.4241 10.966C21.2261 11.318 20.9328 11.6003 20.5441 11.813C20.1555 12.0257 19.6788 12.132 19.1141 12.132ZM26.2399 12.132C25.5432 12.132 24.9419 11.967 24.4359 11.637C23.9372 11.2997 23.5522 10.834 23.2809 10.24C23.0169 9.63867 22.8849 8.942 22.8849 8.15C22.8849 7.358 23.0169 6.665 23.2809 6.071C23.5522 5.46967 23.9372 5.004 24.4359 4.674C24.9419 4.33667 25.5432 4.168 26.2399 4.168C26.9366 4.168 27.5342 4.33667 28.0329 4.674C28.5316 5.004 28.9129 5.46967 29.1769 6.071C29.4482 6.665 29.5839 7.358 29.5839 8.15C29.5839 8.942 29.4482 9.63867 29.1769 10.24C28.9129 10.834 28.5316 11.2997 28.0329 11.637C27.5342 11.967 26.9366 12.132 26.2399 12.132ZM26.2399 11.087C26.6579 11.087 27.0282 10.9697 27.3509 10.735C27.6809 10.5003 27.9376 10.163 28.1209 9.723C28.3042 9.283 28.3959 8.75867 28.3959 8.15C28.3959 7.54133 28.3042 7.017 28.1209 6.577C27.9376 6.137 27.6809 5.79967 27.3509 5.565C27.0282 5.33033 26.6579 5.213 26.2399 5.213C25.8146 5.213 25.4406 5.33033 25.1179 5.565C24.7952 5.79967 24.5422 6.137 24.3589 6.577C24.1756 7.017 24.0839 7.54133 24.0839 8.15C24.0839 8.75867 24.1756 9.283 24.3589 9.723C24.5422 10.163 24.7952 10.5003 25.1179 10.735C25.4406 10.9697 25.8146 11.087 26.2399 11.087ZM30.8395 12V4.08H32.0055V8.799L34.0955 6.544H35.4925L33.1715 9.019L35.8335 12H34.3595L32.0055 9.206V12H30.8395Z" fill="#D7D9DC"/>
<path d="M44 8.5H274" stroke="#585B5E" stroke-opacity="0.5" stroke-linecap="round" stroke-dasharray="3 3"/>
<path d="M44 40H274" stroke="#585B5E" stroke-opacity="0.5" stroke-linecap="round" stroke-dasharray="3 3"/>
<path d="M12.8875 75.132C12.3742 75.132 11.9085 75.0403 11.4905 74.857C11.0799 74.6663 10.7499 74.4023 10.5005 74.065C10.2585 73.7277 10.1375 73.3317 10.1375 72.877C10.1375 72.415 10.2659 72.0007 10.5225 71.634C10.7865 71.2673 11.1349 71.018 11.5675 70.886C11.1789 70.732 10.8782 70.5083 10.6655 70.215C10.4529 69.9143 10.3465 69.5843 10.3465 69.225C10.3465 68.851 10.4455 68.51 10.6435 68.202C10.8415 67.8867 11.1275 67.6373 11.5015 67.454C11.8829 67.2633 12.3449 67.168 12.8875 67.168C13.4302 67.168 13.8885 67.2633 14.2625 67.454C14.6439 67.6373 14.9335 67.8867 15.1315 68.202C15.3295 68.51 15.4285 68.851 15.4285 69.225C15.4285 69.577 15.3185 69.907 15.0985 70.215C14.8859 70.5157 14.5852 70.7393 14.1965 70.886C14.6292 71.0253 14.9739 71.2783 15.2305 71.645C15.4945 72.0043 15.6265 72.415 15.6265 72.877C15.6265 73.3317 15.5055 73.7277 15.2635 74.065C15.0215 74.4023 14.6915 74.6663 14.2735 74.857C13.8629 75.0403 13.4009 75.132 12.8875 75.132ZM12.8875 70.512C13.3129 70.512 13.6465 70.402 13.8885 70.182C14.1379 69.962 14.2625 69.6797 14.2625 69.335C14.2625 68.9463 14.1415 68.6493 13.8995 68.444C13.6575 68.2387 13.3202 68.136 12.8875 68.136C12.4549 68.136 12.1175 68.2387 11.8755 68.444C11.6335 68.6493 11.5125 68.9463 11.5125 69.335C11.5125 69.6797 11.6335 69.962 11.8755 70.182C12.1175 70.402 12.4549 70.512 12.8875 70.512ZM12.8875 74.142C13.4155 74.142 13.8115 74.0173 14.0755 73.768C14.3395 73.5113 14.4715 73.185 14.4715 72.789C14.4715 72.349 14.3285 72.0117 14.0425 71.777C13.7639 71.535 13.3789 71.414 12.8875 71.414C12.3962 71.414 12.0075 71.535 11.7215 71.777C11.4355 72.0117 11.2925 72.349 11.2925 72.789C11.2925 73.185 11.4245 73.5113 11.6885 73.768C11.9599 74.0173 12.3595 74.142 12.8875 74.142ZM19.9068 75.132C19.3422 75.132 18.8655 75.0257 18.4768 74.813C18.0882 74.6003 17.7728 74.318 17.5308 73.966C17.2962 73.614 17.1275 73.218 17.0248 72.778C16.9222 72.338 16.8708 71.887 16.8708 71.425C16.8708 70.5743 16.9882 69.83 17.2228 69.192C17.4648 68.554 17.8095 68.059 18.2568 67.707C18.7042 67.3477 19.2468 67.168 19.8848 67.168C20.3908 67.168 20.8235 67.267 21.1828 67.465C21.5422 67.663 21.8208 67.927 22.0188 68.257C22.2242 68.587 22.3488 68.9463 22.3928 69.335H21.3038C21.2378 68.9537 21.0802 68.6603 20.8308 68.455C20.5815 68.2497 20.2625 68.147 19.8738 68.147C19.3385 68.147 18.8948 68.4 18.5428 68.906C18.1982 69.4047 18.0148 70.1747 17.9928 71.216C18.1688 70.8933 18.4402 70.6183 18.8068 70.391C19.1808 70.1637 19.6098 70.05 20.0938 70.05C20.5265 70.05 20.9298 70.1527 21.3038 70.358C21.6852 70.5633 21.9932 70.853 22.2278 71.227C22.4698 71.5937 22.5908 72.03 22.5908 72.536C22.5908 72.9833 22.4808 73.405 22.2608 73.801C22.0408 74.197 21.7292 74.5197 21.3258 74.769C20.9298 75.011 20.4568 75.132 19.9068 75.132ZM19.8408 74.12C20.1488 74.12 20.4238 74.054 20.6658 73.922C20.9078 73.79 21.0985 73.6103 21.2378 73.383C21.3772 73.1483 21.4468 72.8843 21.4468 72.591C21.4468 72.1217 21.2928 71.7477 20.9848 71.469C20.6842 71.1903 20.2992 71.051 19.8298 71.051C19.5218 71.051 19.2432 71.1207 18.9938 71.26C18.7518 71.3993 18.5612 71.5863 18.4218 71.821C18.2825 72.0483 18.2128 72.3013 18.2128 72.58C18.2128 72.8807 18.2825 73.1483 18.4218 73.383C18.5685 73.6103 18.7628 73.79 19.0048 73.922C19.2542 74.054 19.5328 74.12 19.8408 74.12ZM27.539 75V73.46H23.678V72.536L27.352 67.3H28.694V72.448H29.772V73.46H28.694V75H27.539ZM24.943 72.448H27.605V68.587L24.943 72.448ZM30.8395 75V67.08H32.0055V71.799L34.0955 69.544H35.4925L33.1715 72.019L35.8335 75H34.3595L32.0055 72.206V75H30.8395Z" fill="#D7D9DC"/>
<path d="M44 71.5H274" stroke="#585B5E" stroke-opacity="0.5" stroke-linecap="round" stroke-dasharray="3 3"/>
<path d="M44 55.1622C53 55.1622 53 15.9189 62 15.9189C71 15.9189 71 26.6216 80 26.6216C89 26.6216 89 73 98 73C107 73 107 64.0811 116 64.0811C125 64.0811 125 7 134 7C143 7 143 42.6757 152 42.6757C161 42.6757 161 24.8378 170 24.8378C179 24.8378 179 48.027 188 48.027C197 48.027 197 60.5135 206 60.5135C215 60.5135 215 21.2703 224 21.2703C233 21.2703 233 51.5946 242 51.5946C251 51.5946 251 33.7568 260 33.7568C269 33.7568 269 17.7027 278 17.7027" stroke="url(#paint0_linear_14_10111)" stroke-width="3" stroke-linecap="round"/>
<path d="M44 55.1622C53 55.1622 53 15.9189 62 15.9189C71 15.9189 71 26.6216 80 26.6216C89 26.6216 89 73 98 73C107 73 107 64.0811 116 64.0811C125 64.0811 125 7 134 7C143 7 143 42.6757 152 42.6757C161 42.6757 161 24.8378 170 24.8378C179 24.8378 179 48.027 188 48.027C197 48.027 197 60.5135 206 60.5135C215 60.5135 215 21.2703 224 21.2703C233 21.2703 233 51.5946 242 51.5946C251 51.5946 251 33.7568 260 33.7568C269 33.7568 269 17.7027 278 17.7027" stroke="url(#paint1_linear_14_10111)" stroke-width="3" stroke-linecap="round"/>
<defs>
<linearGradient id="paint0_linear_14_10111" x1="161" y1="7" x2="161" y2="73" gradientUnits="userSpaceOnUse">
<stop stop-color="#00B460"/>
<stop offset="1" stop-color="#001F26"/>
</linearGradient>
<linearGradient id="paint1_linear_14_10111" x1="161" y1="7" x2="161" y2="73" gradientUnits="userSpaceOnUse">
<stop stop-color="#13FF75"/>
<stop offset="1" stop-color="#FF5467"/>
</linearGradient>
</defs>
</svg>
