<svg width="20" height="20" viewBox="0 0 20 20" fill="none" xmlns="http://www.w3.org/2000/svg">
<path d="M13.3335 9.99967C13.3335 9.55765 13.5091 9.13372 13.8217 8.82116C14.1342 8.5086 14.5581 8.33301 15.0002 8.33301C15.4422 8.33301 15.8661 8.5086 16.1787 8.82116C16.4912 9.13372 16.6668 9.55765 16.6668 9.99967C16.6668 10.4417 16.4912 10.8656 16.1787 11.1782C15.8661 11.4907 15.4422 11.6663 15.0002 11.6663C14.5581 11.6663 14.1342 11.4907 13.8217 11.1782C13.5091 10.8656 13.3335 10.4417 13.3335 9.99967ZM8.3335 9.99967C8.3335 9.55765 8.50909 9.13372 8.82165 8.82116C9.13421 8.5086 9.55814 8.33301 10.0002 8.33301C10.4422 8.33301 10.8661 8.5086 11.1787 8.82116C11.4912 9.13372 11.6668 9.55765 11.6668 9.99967C11.6668 10.4417 11.4912 10.8656 11.1787 11.1782C10.8661 11.4907 10.4422 11.6663 10.0002 11.6663C9.55814 11.6663 9.13421 11.4907 8.82165 11.1782C8.50909 10.8656 8.3335 10.4417 8.3335 9.99967ZM3.3335 9.99967C3.3335 9.55765 3.50909 9.13372 3.82165 8.82116C4.13421 8.5086 4.55814 8.33301 5.00016 8.33301C5.44219 8.33301 5.86611 8.5086 6.17867 8.82116C6.49123 9.13372 6.66683 9.55765 6.66683 9.99967C6.66683 10.4417 6.49123 10.8656 6.17867 11.1782C5.86611 11.4907 5.44219 11.6663 5.00016 11.6663C4.55814 11.6663 4.13421 11.4907 3.82165 11.1782C3.50909 10.8656 3.3335 10.4417 3.3335 9.99967Z" fill="white"/>
</svg>
